<svg xmlns="http://www.w3.org/2000/svg" viewBox="0 0 100 100">
  <defs>
    <linearGradient id="qrGradient" x1="0%" y1="0%" x2="100%" y2="100%">
      <stop offset="0%" style="stop-color:#4F46E5;stop-opacity:1" />
      <stop offset="100%" style="stop-color:#06B6D4;stop-opacity:1" />
    </linearGradient>
  </defs>
  
  <!-- Background -->
  <rect width="100" height="100" rx="15" fill="url(#qrGradient)"/>
  
  <!-- QR Code Pattern -->
  <!-- Corner markers -->
  <rect x="10" y="10" width="20" height="20" fill="white" rx="2"/>
  <rect x="70" y="10" width="20" height="20" fill="white" rx="2"/>
  <rect x="10" y="70" width="20" height="20" fill="white" rx="2"/>
  
  <!-- Inner corner squares -->
  <rect x="14" y="14" width="12" height="12" fill="#4F46E5" rx="1"/>
  <rect x="74" y="14" width="12" height="12" fill="#4F46E5" rx="1"/>
  <rect x="14" y="74" width="12" height="12" fill="#4F46E5" rx="1"/>
  
  <!-- Data modules -->
  <rect x="38" y="16" width="4" height="4" fill="white"/>
  <rect x="46" y="16" width="4" height="4" fill="white"/>
  <rect x="54" y="16" width="4" height="4" fill="white"/>
  
  <rect x="16" y="38" width="4" height="4" fill="white"/>
  <rect x="24" y="38" width="4" height="4" fill="white"/>
  <rect x="32" y="38" width="4" height="4" fill="white"/>
  <rect x="40" y="38" width="4" height="4" fill="white"/>
  <rect x="48" y="38" width="4" height="4" fill="white"/>
  <rect x="56" y="38" width="4" height="4" fill="white"/>
  <rect x="64" y="38" width="4" height="4" fill="white"/>
  <rect x="72" y="38" width="4" height="4" fill="white"/>
  <rect x="80" y="38" width="4" height="4" fill="white"/>
  
  <rect x="38" y="46" width="4" height="4" fill="white"/>
  <rect x="54" y="46" width="4" height="4" fill="white"/>
  
  <rect x="38" y="54" width="4" height="4" fill="white"/>
  <rect x="46" y="54" width="4" height="4" fill="white"/>
  <rect x="62" y="54" width="4" height="4" fill="white"/>
  <rect x="70" y="54" width="4" height="4" fill="white"/>
  <rect x="78" y="54" width="4" height="4" fill="white"/>
  
  <rect x="38" y="62" width="4" height="4" fill="white"/>
  <rect x="54" y="62" width="4" height="4" fill="white"/>
  <rect x="70" y="62" width="4" height="4" fill="white"/>
  <rect x="78" y="62" width="4" height="4" fill="white"/>
  
  <rect x="38" y="78" width="4" height="4" fill="white"/>
  <rect x="46" y="78" width="4" height="4" fill="white"/>
  <rect x="54" y="78" width="4" height="4" fill="white"/>
  <rect x="62" y="78" width="4" height="4" fill="white"/>
  <rect x="70" y="78" width="4" height="4" fill="white"/>
  <rect x="78" y="78" width="4" height="4" fill="white"/>
  
  <!-- Center alignment pattern -->
  <rect x="42" y="42" width="16" height="16" fill="white" rx="1"/>
  <rect x="46" y="46" width="8" height="8" fill="#4F46E5" rx="1"/>
</svg>